<svg xmlns="http://www.w3.org/2000/svg" version="1.1" xmlns:xlink="http://www.w3.org/1999/xlink" xmlns:svgjs="http://svgjs.dev/svgjs" width="2000" height="2024" viewBox="0 0 2000 2024"><g transform="matrix(1,0,0,1,1.767868852458946,0.8194331983804659)"><svg viewBox="0 0 244 247" data-background-color="#ffffff" preserveAspectRatio="xMidYMid meet" height="2024" width="2000" xmlns="http://www.w3.org/2000/svg" xmlns:xlink="http://www.w3.org/1999/xlink"><g id="tight-bounds" transform="matrix(1,0,0,1,-0.21567999999999188,-0.09999999999999432)"><svg viewBox="0 0 244.43135999999998 247.2" height="247.2" width="244.43135999999998"><g><svg></svg></g><g><svg viewBox="0 0 244.43135999999998 247.2" height="247.2" width="244.43135999999998"><g transform="matrix(1,0,0,1,0,50.81751242685026)"><svg viewBox="0 0 244.43135999999998 145.56497514629947" height="145.56497514629947" width="244.43135999999998"><g><svg viewBox="0 0 244.43135999999998 145.56497514629947" height="145.56497514629947" width="244.43135999999998"><g><svg viewBox="0 0 244.43135999999998 145.56497514629947" height="145.56497514629947" width="244.43135999999998"><g><svg viewBox="0 0 244.43135999999998 145.56497514629947" height="145.56497514629947" width="244.43135999999998"><g id="textblocktransform"><svg viewBox="0 0 244.43135999999998 145.56497514629947" height="145.56497514629947" width="244.43135999999998" id="textblock"><g><svg viewBox="0 0 244.43135999999998 145.56497514629947" height="145.56497514629947" width="244.43135999999998"><g transform="matrix(1,0,0,1,0,0)"><svg width="244.43135999999998" viewBox="1.2 -34.6 58.099999999999994 34.6" height="145.56497514629947" data-palette-color="#ffffff"><path d="M5 0L1.2 0 10.7-34.6 19.1-34.6 28.6 0 24.8 0 22.3-8.9 7.5-8.9 5 0ZM16.2-31.3L13.6-31.3 8.35-12.35 21.45-12.35 16.2-31.3ZM59.3 0L55.5 0 55.5-15.65 37.9-15.65 37.9 0 34.05 0 34.05-34.6 37.9-34.6 37.9-19.1 55.5-19.1 55.5-34.6 59.3-34.6 59.3 0Z" opacity="1" transform="matrix(1,0,0,1,0,0)" fill="#ffffff" class="wordmark-text-0" data-fill-palette-color="primary" id="text-0"></path></svg></g></svg></g></svg></g></svg></g><g></g></svg></g></svg></g></svg></g><path d="M0 44.818L0 1 244.431 1 244.431 44.818 231.304 44.818 231.304 14.127 13.127 14.127 13.127 44.818 0 44.818M0 202.382L0 246.2 244.431 246.2 244.431 202.382 231.304 202.382 231.304 233.073 13.127 233.073 13.127 202.382 0 202.382" fill="#ffffff" stroke="transparent" data-fill-palette-color="primary"></path></svg></g><defs></defs></svg><rect width="244.43135999999998" height="247.2" fill="none" stroke="none" visibility="hidden"></rect></g></svg></g></svg>